<mxfile host="Electron" modified="2023-08-31T12:47:48.030Z" agent="Mozilla/5.0 (Macintosh; Intel Mac OS X 10_15_7) AppleWebKit/537.36 (KHTML, like Gecko) draw.io/21.2.8 Chrome/112.0.5615.165 Electron/24.2.0 Safari/537.36" etag="4euK8OZny_qb4K4dJHcM" version="21.2.8" type="device">
  <diagram name="Page-1" id="NEm_hbSd9-YrVKkf13i-">
    <mxGraphModel dx="555" dy="371" grid="1" gridSize="10" guides="1" tooltips="1" connect="1" arrows="1" fold="1" page="1" pageScale="1" pageWidth="850" pageHeight="1100" math="0" shadow="0">
      <root>
        <mxCell id="0" />
        <mxCell id="1" parent="0" />
        <mxCell id="hY2roqoKOOJTK3IDu00O-15" value="Visitor" style="swimlane;fontStyle=3;childLayout=stackLayout;horizontal=1;startSize=30;fillColor=none;horizontalStack=0;resizeParent=1;resizeParentMax=0;resizeLast=0;collapsible=0;marginBottom=0;fontSize=12;swimlaneHead=1;swimlaneBody=1;connectable=1;allowArrows=1;dropTarget=1;align=left;spacingLeft=5;" parent="1" vertex="1">
          <mxGeometry x="390" y="70" width="270" height="90" as="geometry">
            <mxRectangle x="245" y="370" width="90" height="26" as="alternateBounds" />
          </mxGeometry>
        </mxCell>
        <mxCell id="hY2roqoKOOJTK3IDu00O-16" value="VisitConcreteElementA(ConcreteElementA)" style="text;strokeColor=none;fillColor=none;align=left;verticalAlign=middle;spacingLeft=5;spacingRight=4;overflow=hidden;rotatable=0;points=[[0,0.5],[1,0.5]];portConstraint=eastwest;fontSize=12;fontStyle=2;connectable=0;" parent="hY2roqoKOOJTK3IDu00O-15" vertex="1">
          <mxGeometry y="30" width="270" height="30" as="geometry" />
        </mxCell>
        <mxCell id="hY2roqoKOOJTK3IDu00O-17" value="VisitConcreteElementB(ConcreteElementB)" style="text;strokeColor=none;fillColor=none;align=left;verticalAlign=middle;spacingLeft=5;spacingRight=4;overflow=hidden;rotatable=0;points=[[0,0.5],[1,0.5]];portConstraint=eastwest;fontSize=12;fontStyle=2;connectable=0;" parent="hY2roqoKOOJTK3IDu00O-15" vertex="1">
          <mxGeometry y="60" width="270" height="30" as="geometry" />
        </mxCell>
        <mxCell id="hY2roqoKOOJTK3IDu00O-27" value="" style="edgeStyle=orthogonalEdgeStyle;rounded=0;orthogonalLoop=1;jettySize=auto;html=1;fontSize=12;startSize=30;endArrow=block;endFill=0;exitX=0.5;exitY=0;exitDx=0;exitDy=0;entryX=0.5;entryY=1;entryDx=0;entryDy=0;" parent="1" source="hY2roqoKOOJTK3IDu00O-29" target="hY2roqoKOOJTK3IDu00O-15" edge="1">
          <mxGeometry relative="1" as="geometry">
            <mxPoint x="351" y="230" as="sourcePoint" />
            <mxPoint x="460" y="240" as="targetPoint" />
          </mxGeometry>
        </mxCell>
        <mxCell id="hY2roqoKOOJTK3IDu00O-28" value="" style="edgeStyle=orthogonalEdgeStyle;rounded=0;orthogonalLoop=1;jettySize=auto;html=1;fontSize=12;startSize=30;endArrow=block;endFill=0;entryX=0.5;entryY=1;entryDx=0;entryDy=0;exitX=0.5;exitY=0;exitDx=0;exitDy=0;" parent="1" source="7cWRKY_6zT6oJUU76MW4-3" target="hY2roqoKOOJTK3IDu00O-15" edge="1">
          <mxGeometry relative="1" as="geometry">
            <mxPoint x="700" y="190" as="sourcePoint" />
            <mxPoint x="490" y="210" as="targetPoint" />
          </mxGeometry>
        </mxCell>
        <mxCell id="hY2roqoKOOJTK3IDu00O-29" value="ConcreteVisitor1" style="swimlane;fontStyle=1;childLayout=stackLayout;horizontal=1;startSize=30;fillColor=none;horizontalStack=0;resizeParent=1;resizeParentMax=0;resizeLast=0;collapsible=0;marginBottom=0;fontSize=12;swimlaneHead=1;swimlaneBody=1;connectable=1;allowArrows=1;dropTarget=1;align=left;spacingLeft=5;" parent="1" vertex="1">
          <mxGeometry x="250" y="230" width="260" height="90" as="geometry">
            <mxRectangle x="245" y="370" width="90" height="26" as="alternateBounds" />
          </mxGeometry>
        </mxCell>
        <mxCell id="hY2roqoKOOJTK3IDu00O-30" value="VisitConcreteElementA(ConcreteElementA)" style="text;strokeColor=none;fillColor=none;align=left;verticalAlign=middle;spacingLeft=5;spacingRight=4;overflow=hidden;rotatable=0;points=[[0,0.5],[1,0.5]];portConstraint=eastwest;fontSize=12;fontStyle=0;connectable=0;" parent="hY2roqoKOOJTK3IDu00O-29" vertex="1">
          <mxGeometry y="30" width="260" height="30" as="geometry" />
        </mxCell>
        <mxCell id="hY2roqoKOOJTK3IDu00O-31" value="VisitConcreteElementB(ConcreteElementB)" style="text;strokeColor=none;fillColor=none;align=left;verticalAlign=middle;spacingLeft=5;spacingRight=4;overflow=hidden;rotatable=0;points=[[0,0.5],[1,0.5]];portConstraint=eastwest;fontSize=12;fontStyle=0;connectable=0;" parent="hY2roqoKOOJTK3IDu00O-29" vertex="1">
          <mxGeometry y="60" width="260" height="30" as="geometry" />
        </mxCell>
        <mxCell id="hY2roqoKOOJTK3IDu00O-35" value="Element" style="swimlane;fontStyle=3;childLayout=stackLayout;horizontal=1;startSize=30;fillColor=none;horizontalStack=0;resizeParent=1;resizeParentMax=0;resizeLast=0;collapsible=0;marginBottom=0;fontSize=12;swimlaneHead=1;swimlaneBody=1;connectable=1;allowArrows=1;dropTarget=1;align=left;spacingLeft=5;" parent="1" vertex="1">
          <mxGeometry x="470" y="425" width="170" height="60" as="geometry">
            <mxRectangle x="245" y="370" width="90" height="26" as="alternateBounds" />
          </mxGeometry>
        </mxCell>
        <mxCell id="hY2roqoKOOJTK3IDu00O-36" value="Accept(NodeVisitor)" style="text;strokeColor=none;fillColor=none;align=left;verticalAlign=middle;spacingLeft=5;spacingRight=4;overflow=hidden;rotatable=0;points=[[0,0.5],[1,0.5]];portConstraint=eastwest;fontSize=12;fontStyle=2;connectable=0;" parent="hY2roqoKOOJTK3IDu00O-35" vertex="1">
          <mxGeometry y="30" width="170" height="30" as="geometry" />
        </mxCell>
        <mxCell id="hY2roqoKOOJTK3IDu00O-38" value="ConcreteElementA" style="swimlane;fontStyle=1;childLayout=stackLayout;horizontal=1;startSize=30;fillColor=none;horizontalStack=0;resizeParent=1;resizeParentMax=0;resizeLast=0;collapsible=0;marginBottom=0;fontSize=12;swimlaneHead=1;swimlaneBody=1;connectable=1;allowArrows=1;dropTarget=1;align=left;spacingLeft=5;" parent="1" vertex="1">
          <mxGeometry x="320" y="545" width="170" height="90" as="geometry">
            <mxRectangle x="245" y="370" width="90" height="26" as="alternateBounds" />
          </mxGeometry>
        </mxCell>
        <mxCell id="hY2roqoKOOJTK3IDu00O-39" value="Accept(Visitor v)" style="text;strokeColor=none;fillColor=none;align=left;verticalAlign=middle;spacingLeft=5;spacingRight=4;overflow=hidden;rotatable=0;points=[[0,0.5],[1,0.5]];portConstraint=eastwest;fontSize=12;fontStyle=0;connectable=0;" parent="hY2roqoKOOJTK3IDu00O-38" vertex="1">
          <mxGeometry y="30" width="170" height="30" as="geometry" />
        </mxCell>
        <mxCell id="7cWRKY_6zT6oJUU76MW4-1" value="OperationA()" style="text;strokeColor=none;fillColor=none;align=left;verticalAlign=middle;spacingLeft=5;spacingRight=4;overflow=hidden;rotatable=0;points=[[0,0.5],[1,0.5]];portConstraint=eastwest;fontSize=12;fontStyle=0;connectable=0;" vertex="1" parent="hY2roqoKOOJTK3IDu00O-38">
          <mxGeometry y="60" width="170" height="30" as="geometry" />
        </mxCell>
        <mxCell id="hY2roqoKOOJTK3IDu00O-40" value="ConcreteElementB" style="swimlane;fontStyle=1;childLayout=stackLayout;horizontal=1;startSize=30;fillColor=none;horizontalStack=0;resizeParent=1;resizeParentMax=0;resizeLast=0;collapsible=0;marginBottom=0;fontSize=12;swimlaneHead=1;swimlaneBody=1;connectable=1;allowArrows=1;dropTarget=1;align=left;spacingLeft=5;" parent="1" vertex="1">
          <mxGeometry x="620" y="545" width="170" height="90" as="geometry">
            <mxRectangle x="245" y="370" width="90" height="26" as="alternateBounds" />
          </mxGeometry>
        </mxCell>
        <mxCell id="hY2roqoKOOJTK3IDu00O-41" value="Accept(Visitor v)" style="text;strokeColor=none;fillColor=none;align=left;verticalAlign=middle;spacingLeft=5;spacingRight=4;overflow=hidden;rotatable=0;points=[[0,0.5],[1,0.5]];portConstraint=eastwest;fontSize=12;fontStyle=0;connectable=0;" parent="hY2roqoKOOJTK3IDu00O-40" vertex="1">
          <mxGeometry y="30" width="170" height="30" as="geometry" />
        </mxCell>
        <mxCell id="7cWRKY_6zT6oJUU76MW4-2" value="OperationB()" style="text;strokeColor=none;fillColor=none;align=left;verticalAlign=middle;spacingLeft=5;spacingRight=4;overflow=hidden;rotatable=0;points=[[0,0.5],[1,0.5]];portConstraint=eastwest;fontSize=12;fontStyle=0;connectable=0;" vertex="1" parent="hY2roqoKOOJTK3IDu00O-40">
          <mxGeometry y="60" width="170" height="30" as="geometry" />
        </mxCell>
        <mxCell id="hY2roqoKOOJTK3IDu00O-43" value="&lt;b&gt;ObjectStructure&lt;/b&gt;" style="html=1;fontSize=12;startSize=25;arcSize=12;spacing=2;fillColor=none;" parent="1" vertex="1">
          <mxGeometry x="220" y="425" width="125" height="30" as="geometry" />
        </mxCell>
        <mxCell id="hY2roqoKOOJTK3IDu00O-45" value="" style="rounded=0;orthogonalLoop=1;jettySize=auto;html=1;fontSize=12;startSize=8;endArrow=blockThin;endFill=1;startArrow=none;startFill=0;entryX=0;entryY=0.5;entryDx=0;entryDy=0;" parent="1" source="hY2roqoKOOJTK3IDu00O-43" target="hY2roqoKOOJTK3IDu00O-46" edge="1">
          <mxGeometry relative="1" as="geometry">
            <mxPoint x="325" y="479.5" as="sourcePoint" />
            <mxPoint x="420" y="438.64128885943535" as="targetPoint" />
          </mxGeometry>
        </mxCell>
        <mxCell id="hY2roqoKOOJTK3IDu00O-46" value="" style="ellipse;whiteSpace=wrap;html=1;aspect=fixed;fillColor=#000000;strokeColor=none;" parent="1" vertex="1">
          <mxGeometry x="460" y="435" width="10" height="10" as="geometry" />
        </mxCell>
        <mxCell id="hY2roqoKOOJTK3IDu00O-47" value="" style="html=1;verticalAlign=bottom;labelBackgroundColor=none;endArrow=oval;endFill=0;endSize=8;rounded=0;fontSize=12;exitX=0.5;exitY=0;exitDx=0;exitDy=0;exitPerimeter=0;anchorPointDirection=0;dashed=1;" parent="1" source="hY2roqoKOOJTK3IDu00O-48" edge="1">
          <mxGeometry width="160" relative="1" as="geometry">
            <mxPoint x="455" y="653" as="sourcePoint" />
            <mxPoint x="455" y="591" as="targetPoint" />
          </mxGeometry>
        </mxCell>
        <mxCell id="hY2roqoKOOJTK3IDu00O-48" value="v-VisitConcreteElementA(ConcreteElementA)" style="shape=note2;boundedLbl=1;whiteSpace=wrap;html=1;size=14;verticalAlign=middle;align=left;spacingLeft=5;fontSize=12;startSize=30;fillColor=none;" parent="1" vertex="1">
          <mxGeometry x="320" y="647" width="270" height="28" as="geometry" />
        </mxCell>
        <mxCell id="hY2roqoKOOJTK3IDu00O-51" value="" style="edgeStyle=orthogonalEdgeStyle;rounded=0;orthogonalLoop=1;jettySize=auto;html=1;fontSize=12;startSize=30;endArrow=block;endFill=0;exitX=0.5;exitY=0;exitDx=0;exitDy=0;entryX=0.5;entryY=1;entryDx=0;entryDy=0;" parent="1" source="hY2roqoKOOJTK3IDu00O-40" target="hY2roqoKOOJTK3IDu00O-35" edge="1">
          <mxGeometry relative="1" as="geometry">
            <mxPoint x="155" y="595" as="sourcePoint" />
            <mxPoint x="15" y="525" as="targetPoint" />
          </mxGeometry>
        </mxCell>
        <mxCell id="hY2roqoKOOJTK3IDu00O-52" value="" style="edgeStyle=orthogonalEdgeStyle;rounded=0;orthogonalLoop=1;jettySize=auto;html=1;fontSize=12;startSize=30;endArrow=block;endFill=0;exitX=0.5;exitY=0;exitDx=0;exitDy=0;entryX=0.5;entryY=1;entryDx=0;entryDy=0;" parent="1" source="hY2roqoKOOJTK3IDu00O-38" target="hY2roqoKOOJTK3IDu00O-35" edge="1">
          <mxGeometry relative="1" as="geometry">
            <mxPoint x="655" y="555" as="sourcePoint" />
            <mxPoint x="535" y="495" as="targetPoint" />
          </mxGeometry>
        </mxCell>
        <mxCell id="7cWRKY_6zT6oJUU76MW4-3" value="ConcreteVisitor2" style="swimlane;fontStyle=1;childLayout=stackLayout;horizontal=1;startSize=30;fillColor=none;horizontalStack=0;resizeParent=1;resizeParentMax=0;resizeLast=0;collapsible=0;marginBottom=0;fontSize=12;swimlaneHead=1;swimlaneBody=1;connectable=1;allowArrows=1;dropTarget=1;align=left;spacingLeft=5;" vertex="1" parent="1">
          <mxGeometry x="540" y="230" width="260" height="90" as="geometry">
            <mxRectangle x="245" y="370" width="90" height="26" as="alternateBounds" />
          </mxGeometry>
        </mxCell>
        <mxCell id="7cWRKY_6zT6oJUU76MW4-4" value="VisitConcreteElementA(ConcreteElementA)" style="text;strokeColor=none;fillColor=none;align=left;verticalAlign=middle;spacingLeft=5;spacingRight=4;overflow=hidden;rotatable=0;points=[[0,0.5],[1,0.5]];portConstraint=eastwest;fontSize=12;fontStyle=0;connectable=0;" vertex="1" parent="7cWRKY_6zT6oJUU76MW4-3">
          <mxGeometry y="30" width="260" height="30" as="geometry" />
        </mxCell>
        <mxCell id="7cWRKY_6zT6oJUU76MW4-5" value="VisitConcreteElementB(ConcreteElementB)" style="text;strokeColor=none;fillColor=none;align=left;verticalAlign=middle;spacingLeft=5;spacingRight=4;overflow=hidden;rotatable=0;points=[[0,0.5],[1,0.5]];portConstraint=eastwest;fontSize=12;fontStyle=0;connectable=0;" vertex="1" parent="7cWRKY_6zT6oJUU76MW4-3">
          <mxGeometry y="60" width="260" height="30" as="geometry" />
        </mxCell>
        <mxCell id="7cWRKY_6zT6oJUU76MW4-6" value="v-VisitConcreteElementB(ConcreteElementB)" style="shape=note2;boundedLbl=1;whiteSpace=wrap;html=1;size=14;verticalAlign=middle;align=left;spacingLeft=5;fontSize=12;startSize=30;fillColor=none;" vertex="1" parent="1">
          <mxGeometry x="620" y="647" width="270" height="28" as="geometry" />
        </mxCell>
        <mxCell id="7cWRKY_6zT6oJUU76MW4-7" value="" style="html=1;verticalAlign=bottom;labelBackgroundColor=none;endArrow=oval;endFill=0;endSize=8;rounded=0;fontSize=12;exitX=0.5;exitY=0;exitDx=0;exitDy=0;exitPerimeter=0;anchorPointDirection=0;dashed=1;" edge="1" source="7cWRKY_6zT6oJUU76MW4-6" parent="1">
          <mxGeometry width="160" relative="1" as="geometry">
            <mxPoint x="755" y="653" as="sourcePoint" />
            <mxPoint x="755" y="591" as="targetPoint" />
          </mxGeometry>
        </mxCell>
        <mxCell id="7cWRKY_6zT6oJUU76MW4-8" value="&lt;b&gt;Client&lt;/b&gt;" style="html=1;fontSize=12;startSize=25;arcSize=12;spacing=2;fillColor=none;" vertex="1" parent="1">
          <mxGeometry x="20" y="70" width="125" height="30" as="geometry" />
        </mxCell>
        <mxCell id="7cWRKY_6zT6oJUU76MW4-9" value="" style="endArrow=blockThin;html=1;rounded=0;endFill=1;exitX=1;exitY=0.5;exitDx=0;exitDy=0;entryX=-0.004;entryY=0.16;entryDx=0;entryDy=0;entryPerimeter=0;" edge="1" parent="1" source="7cWRKY_6zT6oJUU76MW4-8" target="hY2roqoKOOJTK3IDu00O-15">
          <mxGeometry width="50" height="50" relative="1" as="geometry">
            <mxPoint x="230" y="110" as="sourcePoint" />
            <mxPoint x="280" y="60" as="targetPoint" />
          </mxGeometry>
        </mxCell>
        <mxCell id="7cWRKY_6zT6oJUU76MW4-10" value="" style="endArrow=blockThin;html=1;rounded=0;endFill=1;exitX=0.5;exitY=1;exitDx=0;exitDy=0;entryX=0;entryY=0.5;entryDx=0;entryDy=0;edgeStyle=orthogonalEdgeStyle;" edge="1" parent="1" source="7cWRKY_6zT6oJUU76MW4-8" target="hY2roqoKOOJTK3IDu00O-43">
          <mxGeometry width="50" height="50" relative="1" as="geometry">
            <mxPoint x="155" y="95" as="sourcePoint" />
            <mxPoint x="399" y="94" as="targetPoint" />
          </mxGeometry>
        </mxCell>
      </root>
    </mxGraphModel>
  </diagram>
</mxfile>
